<?xml version="1.0" encoding="utf-8"?>
<!-- Generator: Adobe Illustrator 22.0.0, SVG Export Plug-In . SVG Version: 6.00 Build 0)  -->
<svg version="1.1" id="Layer_1" xmlns="http://www.w3.org/2000/svg" xmlns:xlink="http://www.w3.org/1999/xlink" x="0px" y="0px"
	 viewBox="0 0 480 640" style="enable-background:new 0 0 480 640;" xml:space="preserve">
<style type="text/css">
	.st0{fill:#00E6EA;}
</style>
<path class="st0" d="M388,198H92c-6.6,0-12-5.4-12-12v-54c0-6.6,5.4-12,12-12h296c6.6,0,12,5.4,12,12v54
	C400,192.6,394.6,198,388,198z"/>
<path class="st0" d="M388,358H92c-6.6,0-12-5.4-12-12v-54c0-6.6,5.4-12,12-12h296c6.6,0,12,5.4,12,12v54
	C400,352.6,394.6,358,388,358z"/>
<path class="st0" d="M388,520H92c-6.6,0-12-5.4-12-12v-54c0-6.6,5.4-12,12-12h296c6.6,0,12,5.4,12,12v54
	C400,514.6,394.6,520,388,520z"/>
</svg>
