<?xml version="1.0" encoding="utf-8"?>
<!-- Generator: Adobe Illustrator 22.0.0, SVG Export Plug-In . SVG Version: 6.00 Build 0)  -->
<svg version="1.1" id="Layer_1" xmlns="http://www.w3.org/2000/svg" xmlns:xlink="http://www.w3.org/1999/xlink" x="0px" y="0px"
	 viewBox="0 0 480 640" style="enable-background:new 0 0 480 640;" xml:space="preserve">
<style type="text/css">
	.st0{fill:none;}
	.st1{fill:#00E6EA;}
</style>
<g>
	<path class="st0" d="M399,238.7c5.4-3.8,6.6-11.4,2.8-16.7l-20.9-29.3c-3.8-5.4-11.4-6.6-16.7-2.8l-0.8,0.6
		c13.3,14.8,24.3,31.9,32.2,50.7L399,238.7z"/>
	<path class="st0" d="M393.8,388.9c10.4-23,16.2-48.8,16.2-75.9c0-25.6-5.2-49.9-14.4-71.9l-102.8,73.3L393.8,388.9z"/>
	<path class="st0" d="M115.5,183.6c-5.3-3.9-12.9-2.8-16.8,2.5l-21.4,29c-3.9,5.3-2.8,12.9,2.5,16.8l3.5,2.6
		c8.7-18.4,20.3-35.1,34.2-49.3L115.5,183.6z"/>
	<path class="st0" d="M79.1,392.9c-5.4,3.8-6.6,11.4-2.8,16.7L97.2,439c3.8,5.4,11.4,6.6,16.7,2.8l2.7-1.9
		c-13.8-14.3-25.3-31.1-33.8-49.6L79.1,392.9z"/>
	<path class="st0" d="M363.3,190.4C331.9,155.7,287.4,134,238,134c-46.9,0-89.4,19.5-120.4,51.2l124.3,91.7L363.3,190.4z"/>
	<path class="st0" d="M116.7,439.8c31.1,32.2,74,52.2,121.3,52.2c47.9,0,91.2-20.4,122.3-53.2l-119-87.8L116.7,439.8z"/>
	<path class="st0" d="M397.1,391.4l-3.3-2.5c-8.4,18.6-19.7,35.4-33.5,49.9l1.2,0.9c5.3,3.9,12.9,2.8,16.8-2.5l21.4-29
		C403.6,402.9,402.4,395.3,397.1,391.4z"/>
	<path class="st0" d="M83.4,234.5C72.3,258.2,66,284.8,66,313c0,27.7,6,53.9,16.8,77.3l107.7-76.7L83.4,234.5z"/>
	<path class="st1" d="M239,83C114.7,83,14,185.3,14,311.5S114.7,540,239,540s225-102.3,225-228.5S363.3,83,239,83z M399.7,408.2
		l-21.4,29c-3.9,5.3-11.5,6.5-16.8,2.5l-1.2-0.9C329.2,471.6,285.9,492,238,492c-47.4,0-90.2-19.9-121.3-52.2l-2.7,1.9
		c-5.4,3.8-12.9,2.6-16.7-2.8l-20.9-29.3c-3.8-5.4-2.6-12.9,2.8-16.7l3.7-2.6C72,366.9,66,340.7,66,313c0-28.2,6.3-54.8,17.4-78.5
		l-3.5-2.6c-5.3-3.9-6.5-11.5-2.5-16.8l21.4-29c3.9-5.3,11.5-6.5,16.8-2.5l2.1,1.6c31-31.7,73.5-51.2,120.4-51.2
		c49.4,0,93.9,21.7,125.3,56.4l0.8-0.6c5.4-3.8,12.9-2.6,16.7,2.8l20.9,29.3c3.8,5.4,2.6,12.9-2.8,16.7l-3.4,2.4
		c9.3,22,14.4,46.3,14.4,71.9c0,27.1-5.8,52.9-16.2,75.9l3.3,2.5C402.4,395.3,403.6,402.9,399.7,408.2z"/>
	<path class="st1" d="M292.7,314.4l102.8-73.3c-7.9-18.8-18.9-35.9-32.2-50.7l-121.4,86.5l-124.3-91.7
		c-13.9,14.2-25.6,30.9-34.2,49.3l107.1,79L82.8,390.3c8.5,18.5,20,35.2,33.8,49.6L241.3,351l119,87.8
		c13.7-14.4,25.1-31.3,33.5-49.9L292.7,314.4z"/>
</g>
</svg>
